:version 1.10
:name ASF
:units
  mass 1
  length 1
  angle deg
:documentation
  ASF file generated by Kaydara
:root
  axis xyz
  order  tx ty tz rx ry rz
  position 0 0 0
  orientation 0 0 0
:bonedata
  begin
    id 1
    name RightUpLegDummy
    direction -0.718183 -0.695806 0.00816078
    length 4.904
    axis 0 0 0 xyz
  end
  begin
    id 2
    name RightUpLeg
    direction -0.0736652 -0.994202 0.0783343
    length 17.4976
    axis -2.72909 -3.00389 -4.00133 xyz
    dof rx ry rz
  end
  begin
    id 3
    name RightLeg
    direction -0.0389037 -0.994596 -0.0962598
    length 16.5821
    axis 3.95836 -18.5909 -4.46993 xyz
    dof rx ry rz
  end
  begin
    id 4
    name RightFoot
    direction -0.311643 -0.412678 0.855906
    length 3.77069
    axis -1.99483 -18.8351 -3.27644 xyz
    dof rx ry rz
  end
  begin
    id 5
    name RightToes
    direction -0.317852 0.0389852 0.947339
    length 3.85082
    axis -2.00228 -18.1713 -3.25211 xyz
    dof rx ry rz
  end
  begin
    id 6
    name SpineDummy
    direction 8.3039e-015 1 4.44677e-016
    length 4.6813
    axis 0 0 0 xyz
  end
  begin
    id 7
    name Spine
    direction -0.000262373 0.999988 0.00493267
    length 10.1015
    axis -0.00246081 0.00062579 0.0150362 xyz
    dof rx ry rz
  end
  begin
    id 8
    name Spine1
    direction 0 0 0
    length 0
    axis -0.00349562 0.000650293 0.0196666 xyz
    dof rx ry rz
  end
  begin
    id 9
    name HEadDummy
    direction -0.000343232 0.999999 0.00123745
    length 3.43865
    axis -0.00349562 0.000650293 0.0196666 xyz
  end
  begin
    id 10
    name HEad
    direction -0.0461221 0.980933 0.188796
    length 5.12695
    axis -0.00351404 -7.04812 0.0199272 xyz
    dof rx ry rz
  end
  begin
    id 11
    name LeftShoulder1Dummy
    direction 0.998904 -0.0399089 -0.0244534
    length 3.5433
    axis -0.00349562 0.000650293 0.0196666 xyz
  end
  begin
    id 12
    name LeftShoulder1
    direction 0.99951 1.64443e-005 0.0312999
    length 4.05031
    axis -0.00349562 0.000650293 0.0196666 xyz
    dof rx ry rz
  end
  begin
    id 13
    name LeftArm
    direction 0.984791 0.0515299 0.165927
    length 12.9126
    axis -64.823 -10.7743 5.20463 xyz
    dof rx ry rz
  end
  begin
    id 14
    name LeftForeArm
    direction 0.984968 0.0534808 0.16425
    length 10.8596
    axis -30.0462 -7.70601 1.87451 xyz
    dof rx ry rz
  end
  begin
    id 15
    name LeftHand
    direction 0.975871 0.0289682 0.216418
    length 6.62295
    axis -20.1348 -6.98077 1.86072 xyz
    dof rx ry rz
  end
  begin
    id 16
    name RightShoulderDummy
    direction -0.998877 -0.0405946 -0.0244307
    length 3.5433
    axis -0.00349562 0.000650293 0.0196666 xyz
  end
  begin
    id 17
    name RightShoulder
    direction -0.998933 -0.0249743 -0.0388558
    length 4.05031
    axis -0.0205316 -4.02113 1.41395 xyz
    dof rx ry rz
  end
  begin
    id 18
    name RightArm
    direction -0.997559 0.068664 0.0127103
    length 12.9638
    axis -67.3882 1.84188 -6.15987 xyz
    dof rx ry rz
  end
  begin
    id 19
    name RightForeArm
    direction -0.991508 0.0912848 0.0926241
    length 10.8312
    axis -22.1975 3.41087 -4.28711 xyz
    dof rx ry rz
  end
  begin
    id 20
    name RightHand
    direction -0.989262 0.0600788 0.133232
    length 6.57864
    axis -12.2911 2.17515 -4.39675 xyz
    dof rx ry rz
  end
  begin
    id 21
    name LeftUpLegDummy
    direction 0.718183 -0.695806 0.00816078
    length 4.904
    axis 0 0 0 xyz
  end
  begin
    id 22
    name LeftUpLeg
    direction 0.0831398 -0.99469 0.0606531
    length 17.4976
    axis -1.71016 2.29552 4.63832 xyz
    dof rx ry rz
  end
  begin
    id 23
    name LeftLeg
    direction 0.0498442 -0.991778 -0.117862
    length 16.5821
    axis 5.13757 15.5727 5.13348 xyz
    dof rx ry rz
  end
  begin
    id 24
    name LeftFoot
    direction 0.269026 -0.433896 0.85986
    length 3.77069
    axis -0.576502 15.6961 4.10267 xyz
    dof rx ry rz
  end
  begin
    id 25
    name LeftToes
    direction 0.277311 0.0251143 0.960452
    length 3.85048
    axis -0.576502 15.6961 4.10267 xyz
    dof rx ry rz
  end
:hierarchy
  begin
    root RightUpLegDummy SpineDummy LeftUpLegDummy
    RightUpLegDummy RightUpLeg
    RightUpLeg RightLeg
    RightLeg RightFoot
    RightFoot RightToes
    SpineDummy Spine
    Spine Spine1
    Spine1 HEadDummy LeftShoulder1Dummy RightShoulderDummy
    HEadDummy HEad
    LeftShoulder1Dummy LeftShoulder1
    LeftShoulder1 LeftArm
    LeftArm LeftForeArm
    LeftForeArm LeftHand
    RightShoulderDummy RightShoulder
    RightShoulder RightArm
    RightArm RightForeArm
    RightForeArm RightHand
    LeftUpLegDummy LeftUpLeg
    LeftUpLeg LeftLeg
    LeftLeg LeftFoot
    LeftFoot LeftToes
  end

:SAMPLES-PER-SECOND 30
:FULLY-SPECIFIED
:DEGREES
122
root  -0.49626 18.0989 -67.6188 40.4601 14.8432 -1.03992
RightUpLeg  -66.9989 -13.6232 29.3838
RightLeg  121.399 35.8293 -26.9633
RightFoot  -41.8905 5.05761 19.0531
RightToes  5.82077e-011 -3.18055e-015 -2.98177e-016
Spine  41.3325 -3.82708 6.22683
Spine1  2.21531 -2.46491 7.11628
HEad  -14.9801 -3.69771 7.37187
LeftShoulder1  -3.88251e-019 9.70628e-020 -3.87848e-018
LeftArm  -11.2776 -1.24587 -65.7784
LeftForeArm  22.9825 -3.70758 -5.77347
LeftHand  -14.0391 -11.4001 82.3593
RightShoulder  4.27558 9.115 20.469
RightArm  5.06687 20.4981 68.499
RightForeArm  7.84315 6.16229 -4.11822
RightHand  -10.9751 9.46782 -73.4694
LeftUpLeg  -45.4812 -8.79485 26.519
LeftLeg  116.286 -10.2296 -5.84555
LeftFoot  -41.1491 -8.29052 -31.9132
LeftToes  9.37148e-011 4.50685e-012 -4.11107e-011
123
root  -0.499214 18.1027 -67.6303 40.4478 14.7199 -1.017
RightUpLeg  -67.0512 -13.5417 29.3172
RightLeg  121.371 35.8819 -27.0396
RightFoot  -41.8371 5.03952 19.0211
RightToes  5.82077e-011 -3.18055e-015 -2.98177e-016
Spine  41.3516 -3.66276 6.0142
Spine1  2.34082 -2.41962 7.34684
HEad  -15.1395 -3.82308 7.34876
LeftShoulder1  -3.88251e-019 9.70628e-020 -3.87848e-018
LeftArm  -11.3104 -1.37216 -65.86
LeftForeArm  22.9174 -3.70709 -5.73676
LeftHand  -14.0363 -11.4288 82.2477
RightShoulder  4.37245 9.18584 20.9222
RightArm  5.52955 20.98 68.1443
RightForeArm  7.72468 6.20527 -3.84268
RightHand  -10.9755 9.46501 -73.4816
LeftUpLeg  -45.4476 -8.76347 26.4029
LeftLeg  116.297 -10.2273 -5.84711
LeftFoot  -41.1723 -8.27658 -31.8352
LeftToes  9.37148e-011 4.50685e-012 -4.11107e-011
124
root  -0.508517 18.1074 -67.6337 40.4098 14.5786 -1.06206
RightUpLeg  -67.0679 -13.4012 29.3138
RightLeg  121.302 35.9394 -27.1524
RightFoot  -41.736 5.01424 18.9948
RightToes  5.82077e-011 -3.18055e-015 -2.98177e-016
Spine  41.3556 -3.3835 5.74163
Spine1  2.53002 -2.30546 7.73231
HEad  -15.3417 -3.98359 7.37409
LeftShoulder1  -3.88251e-019 9.70628e-020 -3.87848e-018
LeftArm  -11.3995 -1.57165 -66.0452
LeftForeArm  22.8928 -3.5935 -5.67567
LeftHand  -14.0565 -11.4593 82.2241
RightShoulder  4.4818 9.24008 21.475
RightArm  6.21819 21.6715 67.6327
RightForeArm  7.47746 6.27046 -3.40873
RightHand  -10.9777 9.46768 -73.483
LeftUpLeg  -45.3197 -8.671 26.3255
LeftLeg  116.264 -10.2586 -5.79436
LeftFoot  -41.1801 -8.32038 -31.9889
LeftToes  9.37148e-011 4.50685e-012 -4.11107e-011
125
root  -0.513659 18.1099 -67.6356 40.3844 14.4973 -1.07179
RightUpLeg  -67.0702 -13.333 29.2694
RightLeg  121.327 35.9432 -27.1378
RightFoot  -41.688 5.00358 18.9873
RightToes  5.82077e-011 -3.18055e-015 -2.98177e-016
Spine  41.5044 -3.2515 5.58179
Spine1  2.44687 -2.2467 7.91047
HEad  -15.3776 -4.10864 7.42152
LeftShoulder1  -3.88251e-019 9.70628e-020 -3.87848e-018
LeftArm  -11.413 -1.62779 -66.1124
LeftForeArm  22.9263 -3.53152 -5.65466
LeftHand  -14.1044 -11.49 82.3126
RightShoulder  4.50747 9.21094 21.6791
RightArm  6.52775 21.954 67.4337
RightForeArm  7.32041 6.33429 -3.22184
RightHand  -10.9525 9.45276 -73.411
LeftUpLeg  -45.2342 -8.64062 26.2261
LeftLeg  116.235 -10.3217 -5.6774
LeftFoot  -41.1627 -8.32924 -32.0415
LeftToes  9.37148e-011 4.50685e-012 -4.11107e-011
126
root  -0.509051 18.1144 -67.6386 40.3709 14.4875 -1.02229
RightUpLeg  -67.0749 -13.3647 29.1289
RightLeg  121.454 35.8751 -26.9697
RightFoot  -41.669 4.97701 18.8984
RightToes  5.82077e-011 -3.18055e-015 -2.98177e-016
Spine  41.8162 -3.37022 5.5538
Spine1  2.08086 -2.33345 7.81137
HEad  -15.2131 -4.07301 7.44287
LeftShoulder1  -3.88251e-019 9.70628e-020 -3.87848e-018
LeftArm  -11.288 -1.4102 -65.8775
LeftForeArm  22.8698 -3.71187 -5.68669
LeftHand  -14.1632 -11.521 82.4436
RightShoulder  4.4347 9.12212 21.4069
RightArm  6.233 21.6337 67.8082
RightForeArm  7.49051 6.36373 -3.46594
RightHand  -10.9247 9.43921 -73.3205
LeftUpLeg  -45.2274 -8.68065 26.0886
LeftLeg  116.223 -10.3915 -5.5423
LeftFoot  -41.1581 -8.3189 -32.0084
LeftToes  9.37148e-011 4.50685e-012 -4.11107e-011
127
root  -0.501769 18.1184 -67.6414 40.376 14.4691 -0.967547
RightUpLeg  -67.101 -13.3742 28.9615
RightLeg  121.585 35.8035 -26.7962
RightFoot  -41.6215 4.9369 18.7771
RightToes  5.82077e-011 -3.18055e-015 -2.98177e-016
Spine  42.1185 -3.54824 5.51703
Spine1  1.72195 -2.4891 7.7102
HEad  -15.0378 -3.91951 7.45754
LeftShoulder1  -3.88251e-019 9.70628e-020 -3.87848e-018
LeftArm  -11.1233 -1.0744 -65.4896
LeftForeArm  22.6369 -4.04713 -5.71948
LeftHand  -14.1765 -11.5195 82.5028
RightShoulder  4.354 9.04958 21.0552
RightArm  5.82068 21.2012 68.3918
RightForeArm  7.81689 6.39624 -3.81533
RightHand  -10.9289 9.44486 -73.321
LeftUpLeg  -45.238 -8.69337 25.9553
LeftLeg  116.215 -10.4441 -5.44019
LeftFoot  -41.1867 -8.34842 -32.0853
LeftToes  9.37148e-011 4.50685e-012 -4.11107e-011
128
root  -0.499644 18.1155 -67.6428 40.4123 14.3933 -0.938114
RightUpLeg  -67.1512 -13.2844 28.8533
RightLeg  121.663 35.7938 -26.7274
RightFoot  -41.5694 4.93238 18.7957
RightToes  5.82077e-011 -3.18055e-015 -2.98177e-016
Spine  42.2762 -3.61428 5.44638
Spine1  1.55553 -2.57372 7.7242
HEad  -14.9946 -3.85087 7.47027
LeftShoulder1  -3.88251e-019 9.70628e-020 -3.87848e-018
LeftArm  -11.0441 -0.88197 -65.2319
LeftForeArm  22.3872 -4.27654 -5.74552
LeftHand  -14.1129 -11.4632 82.4402
RightShoulder  4.32957 9.00844 20.9823
RightArm  5.78672 21.0868 68.6754
RightForeArm  7.93162 6.49853 -3.91335
RightHand  -10.9368 9.4464 -73.3554
LeftUpLeg  -45.2219 -8.65505 25.8586
LeftLeg  116.202 -10.4713 -5.38918
LeftFoot  -41.2041 -8.37731 -32.1725
LeftToes  9.37148e-011 4.50685e-012 -4.11107e-011
129
root  -0.500376 18.1101 -67.6409 40.4617 14.287 -0.910155
RightUpLeg  -67.202 -13.1661 28.7796
RightLeg  121.709 35.8201 -26.7206
RightFoot  -41.5479 4.95138 18.884
RightToes  5.82077e-011 -3.18055e-015 -2.98177e-016
Spine  42.3522 -3.65133 5.44614
Spine1  1.49425 -2.59224 7.66527
HEad  -15.0142 -3.9181 7.42074
LeftShoulder1  -3.88251e-019 9.70628e-020 -3.87848e-018
LeftArm  -11.0322 -0.823296 -65.0833
LeftForeArm  22.2648 -4.39882 -5.79989
LeftHand  -14.0477 -11.419 82.3284
RightShoulder  4.34374 8.96635 21.1433
RightArm  6.02162 21.2006 68.7174
RightForeArm  7.90079 6.6421 -3.8374
RightHand  -10.8977 9.41392 -73.2772
LeftUpLeg  -45.1805 -8.6223 25.7643
LeftLeg  116.182 -10.4696 -5.39788
LeftFoot  -41.2032 -8.36495 -32.1279
LeftToes  9.37148e-011 4.50685e-012 -4.11107e-011
130
root  -0.497732 18.1114 -67.6333 40.5099 14.179 -0.83707
RightUpLeg  -67.2535 -13.1118 28.6357
RightLeg  121.76 35.8166 -26.6783
RightFoot  -41.5277 4.91924 18.7739
RightToes  5.82077e-011 -3.18055e-015 -2.98177e-016
Spine  42.4807 -3.80705 5.49924
Spine1  1.37525 -2.68925 7.47233
HEad  -14.9761 -3.92887 7.28973
LeftShoulder1  -3.88251e-019 9.70628e-020 -3.87848e-018
LeftArm  -10.9723 -0.604881 -64.7838
LeftForeArm  22.1422 -4.70785 -5.84322
LeftHand  -14.0871 -11.4763 82.2896
RightShoulder  4.38548 8.94406 21.4348
RightArm  6.21326 21.348 68.9606
RightForeArm  8.18791 6.62627 -3.81435
RightHand  -10.8396 9.35958 -73.1837
LeftUpLeg  -45.1469 -8.61443 25.5858
LeftLeg  116.14 -10.48 -5.38796
LeftFoot  -41.2275 -8.37358 -32.132
LeftToes  9.37148e-011 4.50685e-012 -4.11107e-011
131
root  -0.491481 18.117 -67.6217 40.5875 14.0653 -0.702292
RightUpLeg  -67.3318 -13.0993 28.3649
RightLeg  121.88 35.7498 -26.5191
RightFoot  -41.4926 4.84879 18.5257
RightToes  5.82077e-011 -3.18055e-015 -2.98177e-016
Spine  42.6791 -4.06743 5.48812
Spine1  1.1475 -2.93748 7.36522
HEad  -14.8852 -3.73219 7.14819
LeftShoulder1  -3.88251e-019 9.70628e-020 -3.87848e-018
LeftArm  -10.7929 -0.0625336 -64.2647
LeftForeArm  21.8217 -5.31513 -5.80373
LeftHand  -14.2021 -11.5924 82.354
RightShoulder  4.47472 8.9884 21.8892
RightArm  6.36954 21.6007 69.5846
RightForeArm  8.98248 6.25229 -3.81759
RightHand  -10.8478 9.33087 -73.332
LeftUpLeg  -45.1593 -8.60198 25.2756
LeftLeg  116.07 -10.6017 -5.16371
LeftFoot  -41.2349 -8.41673 -32.2832
LeftToes  9.37148e-011 4.50685e-012 -4.11107e-011
132
root  -0.485639 18.1174 -67.61 40.716 13.9341 -0.558291
RightUpLeg  -67.4151 -13.0211 27.9891
RightLeg  122.158 35.5911 -26.1471
RightFoot  -41.4938 4.84624 18.5149
RightToes  5.82077e-011 -3.18055e-015 -2.98177e-016
Spine  42.8811 -4.34682 5.45367
Spine1  0.851746 -3.24377 7.42547
HEad  -14.8062 -3.38963 7.06338
LeftShoulder1  -3.88251e-019 9.70628e-020 -3.87848e-018
LeftArm  -10.5078 0.632035 -63.7035
LeftForeArm  21.2997 -5.94884 -5.72358
LeftHand  -14.2637 -11.6388 82.4429
RightShoulder  4.57165 9.05971 22.3367
RightArm  6.59567 21.9215 70.3829
RightForeArm  9.96773 5.73443 -3.77282
RightHand  -10.9254 9.35555 -73.6344
LeftUpLeg  -45.1897 -8.5534 24.8866
LeftLeg  115.974 -10.8491 -4.69267
LeftFoot  -41.1727 -8.39142 -32.2605
LeftToes  9.37148e-011 4.50685e-012 -4.11107e-011
